<?xml version="1.0" encoding="UTF-8" standalone="no"?>
<svg
   xmlns:dc="http://purl.org/dc/elements/1.1/"
   xmlns:cc="http://creativecommons.org/ns#"
   xmlns:rdf="http://www.w3.org/1999/02/22-rdf-syntax-ns#"
   xmlns:svg="http://www.w3.org/2000/svg"
   xmlns="http://www.w3.org/2000/svg"
   xmlns:sodipodi="http://sodipodi.sourceforge.net/DTD/sodipodi-0.dtd"
   xmlns:inkscape="http://www.inkscape.org/namespaces/inkscape"
   viewBox="0 0 110.26058 105.63117"
   version="1.1"
   id="svg23"
   sodipodi:docname="favicon.svg"
   width="110.26058"
   height="105.63116"
   inkscape:version="0.92.4 (5da689c313, 2019-01-14)">
  <metadata
     id="metadata27">
    <rdf:RDF>
      <cc:Work
         rdf:about="">
        <dc:format>image/svg+xml</dc:format>
        <dc:type
           rdf:resource="http://purl.org/dc/dcmitype/StillImage" />
        <dc:title></dc:title>
      </cc:Work>
    </rdf:RDF>
  </metadata>
  <sodipodi:namedview
     pagecolor="#ffffff"
     bordercolor="#666666"
     borderopacity="1"
     objecttolerance="10"
     gridtolerance="10"
     guidetolerance="10"
     inkscape:pageopacity="0"
     inkscape:pageshadow="2"
     inkscape:window-width="1920"
     inkscape:window-height="1031"
     id="namedview25"
     showgrid="false"
     fit-margin-top="0"
     fit-margin-left="0"
     fit-margin-right="0"
     fit-margin-bottom="0"
     inkscape:zoom="1.8297761"
     inkscape:cx="264.91845"
     inkscape:cy="32.188212"
     inkscape:window-x="0"
     inkscape:window-y="25"
     inkscape:window-maximized="1"
     inkscape:current-layer="Layer_1-2" />
  <defs
     id="defs15">
    <style
       id="style2">.cls-1{fill:url(#New_Gradient_Swatch_3);}.cls-2{font-size:64.24px;fill:#a6a8ab;font-family:BankGothicBT-Light, Bank Gothic BT;font-weight:300;letter-spacing:-0.1em;}</style>
    <linearGradient
       id="New_Gradient_Swatch_3"
       y1="52.810001"
       x2="110.25"
       y2="52.810001"
       gradientUnits="userSpaceOnUse">
      <stop
         offset="0"
         stop-color="#00c6ff"
         id="stop4" />
      <stop
         offset="0.14"
         stop-color="#0db2fc"
         id="stop6" />
      <stop
         offset="0.42"
         stop-color="#307ef5"
         id="stop8" />
      <stop
         offset="0.81"
         stop-color="#672ae9"
         id="stop10" />
      <stop
         offset="1"
         stop-color="#8300e3"
         id="stop12" />
    </linearGradient>
  </defs>
  <g
     id="Layer_2"
     data-name="Layer 2"
     transform="translate(5.8366009e-4,-0.02941634)">
    <g
       id="Layer_1-2"
       data-name="Layer 1">
      <path
         class="cls-1"
         d="M 49.63,81.87 A 13.69,13.69 0 0 1 30.28,62.51 c 0.19,-0.2 0.4,-0.37 0.6,-0.55 5.91,-8.42 6.38,-10.12 -0.36,-18.52 -0.08,-0.08 -0.17,-0.14 -0.24,-0.22 a 13.69,13.69 0 1 1 19.35,0 c -0.26,0.26 -0.54,0.5 -0.82,0.74 -7.3,9 -6.75,9.14 0.57,18.31 v 0 l 0.26,0.24 A 13.68,13.68 0 0 1 49.63,81.87 Z M 76.89,63 A 13.66,13.66 0 0 0 80.12,48.81 13.67,13.67 0 0 0 76.6,42.69 l -0.27,-0.24 v 0 c -7.32,-9.17 -7.87,-9.34 -0.56,-18.31 0.27,-0.24 0.55,-0.48 0.82,-0.74 a 13.69,13.69 0 1 0 -19.36,0 c 0.07,0.08 0.16,0.14 0.24,0.22 6.74,8.4 6.27,10.1 0.36,18.52 -0.2,0.18 -0.41,0.35 -0.6,0.55 A 13.66,13.66 0 0 0 54,56.85 13.67,13.67 0 0 0 57.53,63 l 0.25,0.22 c 6.74,8.4 6.27,10.1 0.36,18.52 l -0.61,0.55 a 13.69,13.69 0 1 0 19.36,0 L 76.63,82 v 0 C 69.31,72.82 68.75,72.65 76.06,63.68 76.35,63.47 76.63,63.23 76.89,63 Z M 23.37,43.61 a 13.69,13.69 0 1 0 0,19.36 13.7,13.7 0 0 0 0,-19.36 z m 63.52,-21 a 13.69,13.69 0 1 0 19.36,0 13.68,13.68 0 0 0 -19.36,0.01 z m 0,41.55 a 13.69,13.69 0 1 0 19.36,0 13.68,13.68 0 0 0 -19.36,0.01 z"
         id="path17"
         inkscape:connector-curvature="0"
         style="fill:url(#New_Gradient_Swatch_3)" />
    </g>
  </g>
</svg>
